<?xml version="1.0" standalone="no"?>
<!DOCTYPE svg PUBLIC "-//W3C//DTD SVG 20010904//EN"
 "http://www.w3.org/TR/2001/REC-SVG-20010904/DTD/svg10.dtd">
<svg version="1.0" xmlns="http://www.w3.org/2000/svg"
 width="400.000000pt" height="400.000000pt" viewBox="0 0 400.000000 400.000000"
 preserveAspectRatio="xMidYMid meet">
<metadata>
Created by potrace 1.14, written by Peter Selinger 2001-2017
</metadata>
<g transform="translate(0.000000,400.000000) scale(0.100000,-0.100000)"
fill="#000000" stroke="none">
<path d="M633 3678 c-15 -16 -24 -28 -20 -28 3 0 -6 -13 -21 -29 -40 -42 -62
-70 -62 -79 0 -4 -9 -14 -19 -22 -11 -7 -18 -17 -15 -22 3 -4 0 -8 -6 -8 -6 0
-13 -8 -17 -17 -3 -10 -18 -28 -32 -41 -14 -13 -19 -20 -11 -16 14 7 1 -9 -62
-76 -14 -16 -24 -31 -22 -33 2 -2 -11 -20 -30 -40 -18 -20 -32 -38 -29 -40 2
-3 -12 -20 -31 -40 -19 -20 -32 -38 -28 -41 3 -3 -2 -6 -12 -6 -9 0 -15 -4
-12 -8 3 -5 -7 -23 -22 -40 -15 -17 -36 -43 -47 -58 -11 -14 -27 -34 -37 -44
-9 -10 -14 -21 -11 -23 3 -3 -4 -12 -16 -19 -12 -7 -21 -18 -21 -25 0 -7 -4
-13 -8 -13 -4 0 -15 -12 -24 -27 l-16 -28 105 -135 c57 -74 112 -144 121 -155
9 -12 39 -50 67 -85 27 -36 53 -69 58 -75 4 -5 24 -32 45 -60 20 -27 42 -55
47 -61 6 -6 57 -73 115 -148 58 -76 253 -328 433 -559 181 -232 369 -474 418
-537 50 -63 100 -128 113 -145 13 -16 61 -77 105 -135 45 -58 87 -112 95 -121
7 -8 31 -40 53 -70 22 -30 49 -64 59 -76 11 -11 26 -31 34 -43 8 -12 23 -31
33 -43 9 -11 32 -40 50 -63 17 -24 35 -42 39 -41 7 2 173 214 503 642 93 121
172 222 175 225 5 4 139 178 376 486 196 256 252 325 272 335 12 7 22 16 22
21 0 4 45 65 101 135 56 71 113 143 128 162 14 19 44 57 67 85 216 272 334
427 330 435 -6 8 16 33 25 28 2 -1 -2 4 -10 11 -8 6 -11 12 -7 12 4 0 -4 11
-18 23 -14 13 -23 27 -20 30 3 3 -9 19 -27 36 -17 17 -28 31 -24 31 4 0 -2 8
-13 19 -12 10 -22 21 -22 25 0 3 -9 15 -20 26 -12 12 -18 26 -14 32 5 8 2 9
-10 5 -10 -4 -15 -3 -11 3 3 6 -1 13 -9 16 -9 3 -16 14 -16 24 0 11 -5 22 -12
26 -7 5 -9 2 -4 -7 4 -8 0 -5 -8 5 -9 11 -16 26 -16 34 0 7 -4 10 -10 7 -5 -3
-10 1 -10 10 0 9 -5 13 -10 10 -5 -3 -10 3 -10 14 0 13 -7 21 -16 21 -10 0
-14 6 -10 15 3 9 0 15 -10 15 -8 0 -13 4 -9 9 3 6 -4 15 -15 21 -11 6 -20 17
-20 25 0 8 -9 19 -20 25 -11 6 -20 16 -20 23 0 7 -9 20 -20 30 -12 10 -18 22
-15 27 3 6 -1 10 -9 10 -9 0 -16 4 -16 10 0 5 -10 19 -22 31 -13 12 -17 18 -9
14 9 -5 12 -4 7 3 -4 7 -14 12 -22 12 -8 0 -13 4 -10 9 3 4 -8 23 -24 41 -16
18 -27 37 -24 41 3 5 -3 6 -12 2 -13 -5 -16 -3 -11 10 4 11 -1 18 -14 22 -10
4 -17 11 -14 16 4 5 1 9 -5 9 -6 0 -9 4 -5 10 8 14 -1345 4 -1359 -10 -6 -6
-11 -14 -11 -18 -1 -4 -17 -25 -38 -46 -20 -22 -34 -42 -32 -46 2 -3 -6 -12
-17 -19 -26 -16 37 75 67 95 11 8 15 14 10 14 -5 0 -4 5 3 12 7 7 12 16 12 20
0 4 -297 7 -660 5 l-661 -2 -26 -27z m2650 -40 c-26 -35 -47 -67 -45 -71 1 -5
-2 -6 -8 -2 -5 3 7 28 30 58 54 70 60 77 66 77 3 0 -16 -28 -43 -62z m-72 -96
c-5 -10 -18 -25 -28 -33 -12 -10 -11 -5 6 19 24 35 38 43 22 14z m-1353 -22
c-7 -10 -14 -17 -17 -15 -4 4 18 35 25 35 2 0 -1 -9 -8 -20z m-40 -49 c-7 -12
-16 -21 -21 -21 -4 0 0 11 10 24 22 29 30 27 11 -3z m1331 -8 c-40 -47 -42
-49 -34 -33 10 19 47 60 53 60 3 0 -5 -12 -19 -27z m-1368 -46 c-10 -9 -11 -8
-5 6 3 10 9 15 12 12 3 -3 0 -11 -7 -18z m1329 -10 c0 -2 -10 -12 -21 -23 -22
-19 -22 -19 -8 4 12 19 29 30 29 19z m-40 -51 c0 -2 -8 -10 -17 -17 -16 -13
-17 -12 -4 4 13 16 21 21 21 13z m-1350 -19 c0 -2 -10 -12 -22 -23 l-23 -19
19 23 c18 21 26 27 26 19z m1310 -24 c-1 -5 -12 -21 -26 -38 -26 -30 -23 -21
6 23 16 23 20 27 20 15z m-1360 -47 c0 -2 -7 -7 -16 -10 -8 -3 -12 -2 -9 4 6
10 25 14 25 6z m-65 -80 c-37 -49 -43 -46 -8 3 15 22 30 38 32 36 1 -2 -9 -20
-24 -39z m1348 19 c-3 -9 -8 -14 -10 -11 -3 3 -2 9 2 15 9 16 15 13 8 -4z
m-65 -85 c-7 -10 -14 -17 -17 -15 -4 4 18 35 25 35 2 0 -1 -9 -8 -20z m-65
-85 c-3 -9 -8 -14 -10 -11 -3 3 -2 9 2 15 9 16 15 13 8 -4z"/>
</g>
</svg>
